Fly_normalized_Motion_pl09
version=1
nRows=16
nColumns=43
inDegrees=yes
endheader
time		pelvis_tilt		pelvis_list		pelvis_rotation		pelvis_tx		pelvis_ty		pelvis_tz		hip_flexion_r		hip_adduction_r		hip_rotation_r		knee_angle_r		ankle_angle_r		subtalar_angle_r		mtp_angle_r		hip_flexion_l		hip_adduction_l		hip_rotation_l		knee_angle_l		ankle_angle_l		subtalar_angle_l		mtp_angle_l		lumbar_extension		lumbar_bending		lumbar_rotation		neck_flexion		neck_lateral_bending		neck_rotation		arm_flex_r		arm_add_r		arm_rot_r		elbow_flex_r		pro_sup_r		wrist_flex_r		wrist_dev_r		hand_finger_flex_r		arm_flex_l		arm_add_l		arm_rot_l		elbow_flex_l		pro_sup_l		wrist_flex_l		wrist_dev_l		hand_finger_flex_l		
1.202045		-3.644293		21.238158		89.523587		0.006505		1.431212		0.831498		7.828564		-5.516796		-12.108646		-19.913710		-29.515745		-5.485973		7.239894		2.589304		-0.612019		-15.732821		-17.912363		-29.215595		-11.219500		22.612717		-57.393932		-8.166249		-10.553390		-28.908641		-2.967274		6.448421		-46.611621		-45.827502		0.155489		53.632216		86.256574		-3.817340		9.449942		39.290909		-40.311158		-36.089591		-7.928789		60.857190		120.126821		-28.344510		4.367786		84.950747		
1.206439		-3.586647		21.123556		89.404606		0.007350		1.415405		0.820203		7.312606		-5.307345		-12.238234		-18.991578		-29.439924		-5.229482		7.590581		2.237878		-0.787108		-16.001317		-17.208904		-29.179115		-11.403172		22.739873		-56.222298		-8.450874		-10.374434		-30.618541		-2.746013		6.460060		-50.443973		-45.105356		-1.766300		53.502446		85.742233		-3.246976		9.731368		39.359468		-43.635071		-35.293791		-8.603419		61.377557		119.583350		-28.779715		4.176026		85.090313		
1.210833		-3.508658		21.038055		89.259993		0.008203		1.399463		0.808972		6.757932		-5.077333		-12.420130		-18.039907		-29.287934		-4.944468		8.024635		1.850461		-0.971271		-16.347666		-16.487396		-29.049644		-11.606982		22.906719		-55.133743		-8.714286		-10.107669		-32.062775		-2.457634		6.463286		-54.256245		-44.180761		-3.922524		53.445269		85.233330		-2.673326		10.114098		39.449574		-46.834080		-34.439405		-9.310437		61.889868		118.993602		-29.244196		3.974405		85.162885		
1.215227		-3.422099		20.980528		89.125294		0.009031		1.383443		0.797761		6.159395		-4.843098		-12.709628		-17.054613		-29.154044		-4.643481		8.500017		1.437601		-1.161804		-16.726740		-15.758238		-28.890334		-11.753743		23.123480		-54.083975		-8.956497		-9.823092		-33.480566		-2.120096		6.431781		-57.965086		-43.146242		-6.106999		53.461181		84.895342		-2.100503		10.566781		39.519015		-49.952793		-33.562854		-9.968080		62.417878		118.412460		-29.744386		3.751916		85.209593		
1.219621		-3.385238		20.839487		89.048722		0.009863		1.367244		0.786533		5.654783		-4.651394		-13.050797		-16.061529		-29.144500		-4.450377		8.751156		1.156961		-1.310980		-16.986216		-15.079585		-28.849394		-11.827708		23.246689		-52.920325		-9.233803		-9.620276		-35.230828		-1.783445		6.369645		-61.375095		-42.281415		-7.558373		53.398449		84.623060		-1.701999		10.778001		39.606963		-53.132939		-32.726494		-10.565803		63.094147		118.025311		-30.148328		3.557317		85.288156		
1.224015		-3.280003		20.968311		88.921088		0.010625		1.351306		0.775411		4.813062		-4.424844		-13.548757		-14.977432		-29.092410		-3.934798		9.688159		0.518484		-1.508570		-17.411234		-14.276029		-28.616550		-11.668664		23.817701		-52.108880		-9.383129		-9.276765		-36.490897		-1.612270		6.205719		-64.943040		-40.918541		-10.197955		53.746817		85.109344		-0.690531		11.810114		39.398970		-56.018353		-31.947340		-10.878918		63.560859		117.384287		-30.869127		3.065695		85.317613		
1.228409		-3.249242		20.786191		88.860291		0.011507		1.334786		0.764458		4.390019		-4.239083		-13.988209		-14.008130		-29.103763		-3.732116		9.974644		0.292523		-1.639689		-17.647623		-13.550507		-28.445039		-11.709883		23.998388		-51.012080		-9.645384		-9.092099		-37.866948		-1.187462		6.251859		-68.094914		-39.861095		-11.697274		53.870759		84.887404		-0.260678		11.924394		39.396770		-58.994560		-30.973901		-11.644052		64.164849		117.070185		-31.302909		2.816782		85.373750		
1.232803		-3.214007		20.710123		88.794760		0.012336		1.318294		0.753581		3.842711		-4.060084		-14.473769		-13.010767		-29.102709		-3.435256		10.421770		-0.059096		-1.763754		-17.848434		-12.784049		-28.241470		-11.614203		24.287271		-50.045228		-9.870310		-8.864821		-39.128990		-0.911554		6.221804		-71.170745		-38.686993		-13.376970		54.151761		84.982619		0.354806		12.364967		39.311624		-61.831777		-30.089635		-12.226429		64.742164		116.816515		-31.718590		2.393973		85.386219		
1.237197		-3.165503		20.776899		88.745895		0.012927		1.301880		0.742773		3.143298		-3.899122		-15.140802		-12.022527		-29.161706		-3.078387		11.243078		-0.547072		-1.884300		-18.089440		-12.031565		-28.003545		-11.363526		24.833396		-49.261208		-10.013099		-8.602849		-40.238281		-0.672658		6.128633		-74.159163		-37.284586		-15.495710		54.561537		85.495437		1.340605		13.044292		38.955662		-64.452177		-29.176344		-12.783512		65.232739		116.542583		-32.112556		1.710984		85.301527		
1.241591		-3.183451		20.572189		88.657259		0.013594		1.284873		0.732325		2.848037		-3.772368		-15.585079		-11.153056		-29.139940		-3.055561		11.387248		-0.677565		-1.929059		-18.142106		-11.338200		-27.852221		-11.365000		24.950566		-48.268023		-10.289646		-8.384412		-41.191657		-0.275721		6.136946		-76.789519		-36.141606		-16.769517		54.723973		85.193705		1.649400		12.991832		39.030706		-66.999874		-28.222863		-13.434241		65.802495		116.411624		-32.369501		1.446716		85.308395		
1.245985		-3.074253		20.712291		88.641094		0.014125		1.268189		0.721961		2.151075		-3.557100		-16.329327		-10.308139		-29.133793		-2.719937		12.183963		-1.135974		-2.118188		-18.247864		-10.737333		-27.491948		-10.974703		25.627138		-47.672446		-10.287660		-8.106976		-41.946602		-0.163419		6.127138		-79.417368		-34.443575		-19.275034		55.265834		85.902845		2.798317		13.800501		38.977813		-69.259145		-27.264538		-14.117097		66.110330		116.504621		-32.596298		0.475819		85.017130		
1.250379		-3.109081		20.477761		88.492457		0.015016		1.250909		0.711866		1.943024		-3.422522		-16.720199		-9.481587		-29.023839		-2.800038		12.324740		-1.222387		-2.140538		-18.159411		-10.024872		-27.433638		-10.923781		25.753870		-46.744227		-10.618009		-7.904002		-42.621606		0.155213		6.096697		-81.508259		-33.323902		-20.285755		55.314692		85.632369		3.089594		13.619290		39.051627		-71.462656		-26.378895		-14.635856		66.480463		116.408639		-32.791941		0.273510		84.994536		
1.254773		-2.967337		20.544140		88.511037		0.015437		1.233859		0.702067		1.522428		-3.204744		-17.306577		-9.004049		-28.906445		-2.505412		13.198558		-1.444897		-2.382065		-18.102909		-9.688469		-27.087071		-10.505459		26.606382		-46.190065		-10.522613		-7.658694		-43.256991		0.258493		6.255347		-83.517116		-31.505956		-22.850743		55.630623		86.404397		4.635741		14.161153		39.318511		-73.292392		-25.380100		-15.414783		66.561483		116.791739		-33.155366		-0.772856		84.522135		
1.259167		-2.988679		20.413408		88.420222		0.016154		1.216583		0.692430		1.343806		-3.115067		-17.536249		-8.503213		-28.793423		-2.504631		13.441734		-1.524611		-2.423091		-17.904422		-9.173068		-27.113672		-10.378808		26.832455		-45.481666		-10.748520		-7.471641		-43.884101		0.463420		6.263591		-85.068407		-30.267549		-23.960552		55.561503		86.204828		5.002716		13.954394		39.380472		-74.990618		-24.470729		-16.071234		66.686412		116.709580		-33.378065		-0.966754		84.419535		
1.263561		-2.989985		20.330289		88.390244		0.016804		1.199275		0.683227		1.244184		-3.047380		-17.646351		-8.294552		-28.627839		-2.394747		13.696930		-1.533896		-2.511369		-17.648958		-8.868590		-27.099539		-10.247555		27.066837		-44.928008		-10.882505		-7.323020		-44.336486		0.629783		6.386407		-86.272954		-28.917261		-25.268743		55.347180		85.844763		5.438494		13.789950		39.524882		-76.383065		-23.538856		-16.842060		66.663703		116.667479		-33.658849		-1.143345		84.284853		
1.267955		-2.983837		20.275399		88.418586		0.017283		1.181952		0.674397		1.214536		-3.020310		-17.691700		-8.317216		-28.464039		-2.146256		14.040919		-1.471439		-2.613323		-17.311781		-8.743296		-27.051022		-10.077314		27.390082		-44.514633		-10.935666		-7.248678		-44.593004		0.691816		6.514559		-87.024886		-27.570280		-26.692195		54.896994		85.540086		6.042250		13.825873		39.724482		-77.439189		-22.602740		-17.632305		66.418641		116.688334		-33.952715		-1.366577		84.084054		
